<mxfile host="app.diagrams.net" agent="Mozilla/5.0 (Windows NT 10.0; Win64; x64) AppleWebKit/537.36 (KHTML, like Gecko) Chrome/133.0.0.0 Safari/537.36" version="26.0.16">
  <diagram name="Page-1" id="CWL9Z82AEGqEEBlL2vq-">
    <mxGraphModel dx="880" dy="529" grid="1" gridSize="10" guides="1" tooltips="1" connect="1" arrows="1" fold="1" page="1" pageScale="1" pageWidth="850" pageHeight="1100" math="0" shadow="0">
      <root>
        <mxCell id="0" />
        <mxCell id="1" parent="0" />
        <mxCell id="NJzwq6byW09R1rVH1Iy5-1" value="Actor" style="shape=umlActor;verticalLabelPosition=bottom;verticalAlign=top;html=1;outlineConnect=0;" vertex="1" parent="1">
          <mxGeometry x="60" y="90" width="40" height="100" as="geometry" />
        </mxCell>
        <mxCell id="NJzwq6byW09R1rVH1Iy5-32" style="edgeStyle=orthogonalEdgeStyle;rounded=0;orthogonalLoop=1;jettySize=auto;html=1;exitX=0.5;exitY=0;exitDx=0;exitDy=0;exitPerimeter=0;entryX=0.5;entryY=1;entryDx=0;entryDy=0;" edge="1" parent="1" source="NJzwq6byW09R1rVH1Iy5-5" target="NJzwq6byW09R1rVH1Iy5-11">
          <mxGeometry relative="1" as="geometry" />
        </mxCell>
        <mxCell id="NJzwq6byW09R1rVH1Iy5-5" value="Actor" style="shape=umlActor;verticalLabelPosition=bottom;verticalAlign=top;html=1;outlineConnect=0;" vertex="1" parent="1">
          <mxGeometry x="60" y="280" width="40" height="100" as="geometry" />
        </mxCell>
        <mxCell id="NJzwq6byW09R1rVH1Iy5-7" value="" style="whiteSpace=wrap;html=1;aspect=fixed;" vertex="1" parent="1">
          <mxGeometry x="140" y="40" width="540" height="540" as="geometry" />
        </mxCell>
        <mxCell id="NJzwq6byW09R1rVH1Iy5-31" style="edgeStyle=orthogonalEdgeStyle;rounded=0;orthogonalLoop=1;jettySize=auto;html=1;exitX=0.5;exitY=0;exitDx=0;exitDy=0;exitPerimeter=0;" edge="1" parent="1" source="NJzwq6byW09R1rVH1Iy5-6" target="NJzwq6byW09R1rVH1Iy5-12">
          <mxGeometry relative="1" as="geometry" />
        </mxCell>
        <mxCell id="NJzwq6byW09R1rVH1Iy5-6" value="Actor" style="shape=umlActor;verticalLabelPosition=bottom;verticalAlign=top;html=1;outlineConnect=0;" vertex="1" parent="1">
          <mxGeometry x="60" y="470" width="40" height="100" as="geometry" />
        </mxCell>
        <mxCell id="NJzwq6byW09R1rVH1Iy5-8" value="Registration" style="text;html=1;align=center;verticalAlign=middle;whiteSpace=wrap;rounded=0;" vertex="1" parent="1">
          <mxGeometry x="380" y="60" width="60" height="30" as="geometry" />
        </mxCell>
        <mxCell id="NJzwq6byW09R1rVH1Iy5-11" value="Customer" style="text;html=1;align=center;verticalAlign=middle;whiteSpace=wrap;rounded=0;" vertex="1" parent="1">
          <mxGeometry x="50" y="200" width="60" height="30" as="geometry" />
        </mxCell>
        <mxCell id="NJzwq6byW09R1rVH1Iy5-33" value="" style="edgeStyle=orthogonalEdgeStyle;rounded=0;orthogonalLoop=1;jettySize=auto;html=1;endArrow=none;startFill=0;" edge="1" parent="1" source="NJzwq6byW09R1rVH1Iy5-12" target="NJzwq6byW09R1rVH1Iy5-6">
          <mxGeometry relative="1" as="geometry" />
        </mxCell>
        <mxCell id="NJzwq6byW09R1rVH1Iy5-12" value="Employee" style="text;html=1;align=center;verticalAlign=middle;whiteSpace=wrap;rounded=0;" vertex="1" parent="1">
          <mxGeometry x="50" y="400" width="60" height="30" as="geometry" />
        </mxCell>
        <mxCell id="NJzwq6byW09R1rVH1Iy5-13" value="Admin" style="text;html=1;align=center;verticalAlign=middle;whiteSpace=wrap;rounded=0;" vertex="1" parent="1">
          <mxGeometry x="50" y="590" width="60" height="30" as="geometry" />
        </mxCell>
        <mxCell id="NJzwq6byW09R1rVH1Iy5-21" style="edgeStyle=orthogonalEdgeStyle;rounded=0;orthogonalLoop=1;jettySize=auto;html=1;exitX=0;exitY=0.5;exitDx=0;exitDy=0;endArrow=none;startFill=0;" edge="1" parent="1" source="NJzwq6byW09R1rVH1Iy5-14">
          <mxGeometry relative="1" as="geometry">
            <mxPoint x="110" y="145" as="targetPoint" />
          </mxGeometry>
        </mxCell>
        <mxCell id="NJzwq6byW09R1rVH1Iy5-22" style="edgeStyle=orthogonalEdgeStyle;rounded=0;orthogonalLoop=1;jettySize=auto;html=1;exitX=1;exitY=0.5;exitDx=0;exitDy=0;entryX=0;entryY=0.5;entryDx=0;entryDy=0;dashed=1;startArrow=classic;startFill=1;endArrow=none;" edge="1" parent="1" source="NJzwq6byW09R1rVH1Iy5-14" target="NJzwq6byW09R1rVH1Iy5-15">
          <mxGeometry relative="1" as="geometry" />
        </mxCell>
        <mxCell id="NJzwq6byW09R1rVH1Iy5-14" value="Enter Credentials" style="ellipse;whiteSpace=wrap;html=1;" vertex="1" parent="1">
          <mxGeometry x="240" y="110" width="140" height="70" as="geometry" />
        </mxCell>
        <mxCell id="NJzwq6byW09R1rVH1Iy5-15" value="Validate Credentials" style="ellipse;whiteSpace=wrap;html=1;" vertex="1" parent="1">
          <mxGeometry x="470" y="110" width="140" height="70" as="geometry" />
        </mxCell>
        <mxCell id="NJzwq6byW09R1rVH1Iy5-23" style="edgeStyle=orthogonalEdgeStyle;rounded=0;orthogonalLoop=1;jettySize=auto;html=1;exitX=0.5;exitY=0;exitDx=0;exitDy=0;entryX=0.5;entryY=1;entryDx=0;entryDy=0;dashed=1;" edge="1" parent="1" source="NJzwq6byW09R1rVH1Iy5-16" target="NJzwq6byW09R1rVH1Iy5-15">
          <mxGeometry relative="1" as="geometry" />
        </mxCell>
        <mxCell id="NJzwq6byW09R1rVH1Iy5-16" value="Save details to database" style="ellipse;whiteSpace=wrap;html=1;" vertex="1" parent="1">
          <mxGeometry x="470" y="230" width="140" height="70" as="geometry" />
        </mxCell>
        <mxCell id="NJzwq6byW09R1rVH1Iy5-24" style="edgeStyle=orthogonalEdgeStyle;rounded=0;orthogonalLoop=1;jettySize=auto;html=1;exitX=0.5;exitY=0;exitDx=0;exitDy=0;entryX=0.5;entryY=1;entryDx=0;entryDy=0;dashed=1;" edge="1" parent="1" source="NJzwq6byW09R1rVH1Iy5-17" target="NJzwq6byW09R1rVH1Iy5-16">
          <mxGeometry relative="1" as="geometry" />
        </mxCell>
        <mxCell id="NJzwq6byW09R1rVH1Iy5-17" value="Redirect to Login" style="ellipse;whiteSpace=wrap;html=1;" vertex="1" parent="1">
          <mxGeometry x="470" y="380" width="140" height="70" as="geometry" />
        </mxCell>
        <mxCell id="NJzwq6byW09R1rVH1Iy5-26" value="&amp;lt;&amp;lt;Includes&amp;gt;&amp;gt;" style="text;html=1;align=center;verticalAlign=middle;whiteSpace=wrap;rounded=0;" vertex="1" parent="1">
          <mxGeometry x="470" y="330" width="60" height="30" as="geometry" />
        </mxCell>
        <mxCell id="NJzwq6byW09R1rVH1Iy5-28" value="&amp;lt;&amp;lt;Includes&amp;gt;&amp;gt;" style="text;html=1;align=center;verticalAlign=middle;whiteSpace=wrap;rounded=0;" vertex="1" parent="1">
          <mxGeometry x="400" y="110" width="60" height="30" as="geometry" />
        </mxCell>
        <mxCell id="NJzwq6byW09R1rVH1Iy5-29" value="&amp;lt;&amp;lt;Includes&amp;gt;&amp;gt;" style="text;html=1;align=center;verticalAlign=middle;whiteSpace=wrap;rounded=0;" vertex="1" parent="1">
          <mxGeometry x="470" y="190" width="60" height="30" as="geometry" />
        </mxCell>
        <mxCell id="NJzwq6byW09R1rVH1Iy5-34" value="User Credentials:&lt;div&gt;Email&lt;/div&gt;&lt;div&gt;Username&lt;/div&gt;&lt;div&gt;DOB&lt;/div&gt;&lt;div&gt;Password&lt;/div&gt;" style="shape=note;whiteSpace=wrap;html=1;backgroundOutline=1;darkOpacity=0.05;" vertex="1" parent="1">
          <mxGeometry x="700" y="40" width="110" height="190" as="geometry" />
        </mxCell>
        <mxCell id="NJzwq6byW09R1rVH1Iy5-35" value="Actor" style="shape=umlActor;verticalLabelPosition=bottom;verticalAlign=top;html=1;outlineConnect=0;" vertex="1" parent="1">
          <mxGeometry x="80" y="790" width="40" height="100" as="geometry" />
        </mxCell>
        <mxCell id="NJzwq6byW09R1rVH1Iy5-36" style="edgeStyle=orthogonalEdgeStyle;rounded=0;orthogonalLoop=1;jettySize=auto;html=1;exitX=0.5;exitY=0;exitDx=0;exitDy=0;exitPerimeter=0;entryX=0.5;entryY=1;entryDx=0;entryDy=0;" edge="1" parent="1" source="NJzwq6byW09R1rVH1Iy5-37" target="NJzwq6byW09R1rVH1Iy5-42">
          <mxGeometry relative="1" as="geometry" />
        </mxCell>
        <mxCell id="NJzwq6byW09R1rVH1Iy5-37" value="Actor" style="shape=umlActor;verticalLabelPosition=bottom;verticalAlign=top;html=1;outlineConnect=0;" vertex="1" parent="1">
          <mxGeometry x="80" y="980" width="40" height="100" as="geometry" />
        </mxCell>
        <mxCell id="NJzwq6byW09R1rVH1Iy5-38" value="" style="whiteSpace=wrap;html=1;aspect=fixed;" vertex="1" parent="1">
          <mxGeometry x="160" y="740" width="540" height="540" as="geometry" />
        </mxCell>
        <mxCell id="NJzwq6byW09R1rVH1Iy5-39" style="edgeStyle=orthogonalEdgeStyle;rounded=0;orthogonalLoop=1;jettySize=auto;html=1;exitX=0.5;exitY=0;exitDx=0;exitDy=0;exitPerimeter=0;" edge="1" parent="1" source="NJzwq6byW09R1rVH1Iy5-40" target="NJzwq6byW09R1rVH1Iy5-44">
          <mxGeometry relative="1" as="geometry" />
        </mxCell>
        <mxCell id="NJzwq6byW09R1rVH1Iy5-40" value="Actor" style="shape=umlActor;verticalLabelPosition=bottom;verticalAlign=top;html=1;outlineConnect=0;" vertex="1" parent="1">
          <mxGeometry x="80" y="1170" width="40" height="100" as="geometry" />
        </mxCell>
        <mxCell id="NJzwq6byW09R1rVH1Iy5-42" value="Customer" style="text;html=1;align=center;verticalAlign=middle;whiteSpace=wrap;rounded=0;" vertex="1" parent="1">
          <mxGeometry x="70" y="900" width="60" height="30" as="geometry" />
        </mxCell>
        <mxCell id="NJzwq6byW09R1rVH1Iy5-43" value="" style="edgeStyle=orthogonalEdgeStyle;rounded=0;orthogonalLoop=1;jettySize=auto;html=1;endArrow=none;startFill=0;" edge="1" parent="1" source="NJzwq6byW09R1rVH1Iy5-44" target="NJzwq6byW09R1rVH1Iy5-40">
          <mxGeometry relative="1" as="geometry" />
        </mxCell>
        <mxCell id="NJzwq6byW09R1rVH1Iy5-44" value="Employee" style="text;html=1;align=center;verticalAlign=middle;whiteSpace=wrap;rounded=0;" vertex="1" parent="1">
          <mxGeometry x="70" y="1100" width="60" height="30" as="geometry" />
        </mxCell>
        <mxCell id="NJzwq6byW09R1rVH1Iy5-45" value="Admin" style="text;html=1;align=center;verticalAlign=middle;whiteSpace=wrap;rounded=0;" vertex="1" parent="1">
          <mxGeometry x="70" y="1290" width="60" height="30" as="geometry" />
        </mxCell>
        <mxCell id="NJzwq6byW09R1rVH1Iy5-46" style="edgeStyle=orthogonalEdgeStyle;rounded=0;orthogonalLoop=1;jettySize=auto;html=1;exitX=0;exitY=0.5;exitDx=0;exitDy=0;endArrow=none;startFill=0;" edge="1" parent="1" source="NJzwq6byW09R1rVH1Iy5-48">
          <mxGeometry relative="1" as="geometry">
            <mxPoint x="130" y="845" as="targetPoint" />
          </mxGeometry>
        </mxCell>
        <mxCell id="NJzwq6byW09R1rVH1Iy5-47" style="edgeStyle=orthogonalEdgeStyle;rounded=0;orthogonalLoop=1;jettySize=auto;html=1;exitX=1;exitY=0.5;exitDx=0;exitDy=0;entryX=0;entryY=0.5;entryDx=0;entryDy=0;dashed=1;startArrow=classic;startFill=1;endArrow=none;" edge="1" parent="1" source="NJzwq6byW09R1rVH1Iy5-48" target="NJzwq6byW09R1rVH1Iy5-49">
          <mxGeometry relative="1" as="geometry" />
        </mxCell>
        <mxCell id="NJzwq6byW09R1rVH1Iy5-48" value="Enter username and password" style="ellipse;whiteSpace=wrap;html=1;" vertex="1" parent="1">
          <mxGeometry x="260" y="810" width="140" height="70" as="geometry" />
        </mxCell>
        <mxCell id="NJzwq6byW09R1rVH1Iy5-49" value="Validate username, password and user type" style="ellipse;whiteSpace=wrap;html=1;" vertex="1" parent="1">
          <mxGeometry x="490" y="810" width="140" height="70" as="geometry" />
        </mxCell>
        <mxCell id="NJzwq6byW09R1rVH1Iy5-52" style="edgeStyle=orthogonalEdgeStyle;rounded=0;orthogonalLoop=1;jettySize=auto;html=1;exitX=0.5;exitY=0;exitDx=0;exitDy=0;entryX=0.5;entryY=1;entryDx=0;entryDy=0;dashed=1;" edge="1" parent="1" source="NJzwq6byW09R1rVH1Iy5-53" target="NJzwq6byW09R1rVH1Iy5-49">
          <mxGeometry relative="1" as="geometry">
            <mxPoint x="560" y="1000" as="targetPoint" />
          </mxGeometry>
        </mxCell>
        <mxCell id="NJzwq6byW09R1rVH1Iy5-53" value="Redirect to Login" style="ellipse;whiteSpace=wrap;html=1;" vertex="1" parent="1">
          <mxGeometry x="490" y="960" width="140" height="70" as="geometry" />
        </mxCell>
        <mxCell id="NJzwq6byW09R1rVH1Iy5-55" value="&amp;lt;&amp;lt;Includes&amp;gt;&amp;gt;" style="text;html=1;align=center;verticalAlign=middle;whiteSpace=wrap;rounded=0;" vertex="1" parent="1">
          <mxGeometry x="420" y="810" width="60" height="30" as="geometry" />
        </mxCell>
        <mxCell id="NJzwq6byW09R1rVH1Iy5-56" value="&amp;lt;&amp;lt;Includes&amp;gt;&amp;gt;" style="text;html=1;align=center;verticalAlign=middle;whiteSpace=wrap;rounded=0;" vertex="1" parent="1">
          <mxGeometry x="490" y="890" width="60" height="30" as="geometry" />
        </mxCell>
        <mxCell id="NJzwq6byW09R1rVH1Iy5-57" value="Login" style="text;html=1;align=center;verticalAlign=middle;whiteSpace=wrap;rounded=0;" vertex="1" parent="1">
          <mxGeometry x="410" y="750" width="60" height="30" as="geometry" />
        </mxCell>
      </root>
    </mxGraphModel>
  </diagram>
</mxfile>
